<svg xmlns="http://www.w3.org/2000/svg" viewBox="0 0 866.28 866.36">
	<title>
		Trakteer Icon
	</title>
	<path d="M147.9.4a32.24,32.24,0,0,1-6.4,1c-9,1-27.8,6-38,10.1A164.64,164.64,0,0,0,6,119.8C-.1,141.9.2,123.2.2,433c-.1,175.8.3,285.8.9,289.5.5,3.3,1.2,7.6,1.4,9.5,4.1,27.2,20.6,59.9,41.7,82.5,26.4,28.2,63.9,47.2,100.8,51.2,9.1.9,565.6,1.1,575.5.1a68.21,68.21,0,0,0,8.5-1.2,19,19,0,0,1,4.5-1c16.9-2.1,41.8-12.4,61.4-25.5,7.9-5.2,29.1-23.3,29.1-24.9a37.54,37.54,0,0,1,4.6-5.7c5.2-5.7,15.5-21.1,20.1-30a180.94,180.94,0,0,0,12.9-34.4c2.5-9.8,2.9-12.3,4.2-23.5,1-7.6.8-568.7-.1-575.1-6.6-45-26.6-80.7-61.3-109.3C787.8,21.6,761.3,8.9,739.1,4c-4.8-1-10.2-2.2-12.1-2.6C723.6.6,148.7-.4,147.9.4ZM417.5,133.5a65.3,65.3,0,0,1,44.2,39c1.7,4.3,3,8.1,2.8,8.3a40.54,40.54,0,0,1-7.1,1.7c-29,6.1-50.5,32.4-50.6,61.9a83.55,83.55,0,0,0,.7,12.5l.7,4.4-9.8-.6C371,259.2,349,242.4,340,216c-3.3-9.5-3.7-26-.9-36,7.2-25.9,29.3-45.2,55.4-48.2C400,131.1,411.4,132,417.5,133.5Zm75.6,62.1a57.53,57.53,0,0,1,38.4,38.7c3.4,11.8,2,27.3-3.4,38.7l-2.6,5.5h-96l-2.3-4.9a55.8,55.8,0,0,1,25.1-74A56.37,56.37,0,0,1,493.1,195.6Zm60.4,99.9c16,7.5,18.9,28.8,5.3,39.7-7.1,5.8-1.8,5.6-123.7,5.6-91.9,0-113.2-.3-116.3-1.4A23.11,23.11,0,0,1,305.6,328c-7.5-13.7,1-31.4,16.4-33.9,1.9-.4,53.8-.6,115.5-.6C544.9,293.6,549.7,293.7,553.5,295.5ZM552.1,371c.1.8.1,5.2.1,9.7V389l4.9,1.4c22.9,6.8,40.2,26.6,43.4,49.6.9,6.1.9,210.2,0,216.9-1.7,13.3-9,26.8-19.5,36.3A56.75,56.75,0,0,1,555.4,707c-7.5,2-11.3,2-119.5,2-109.3,0-111.8-.1-119.5-2.1-22.1-5.7-38.6-22.9-43.9-45.4-1.3-5.9-1.5-20.2-1.5-114,.1-101,.2-107.6,1.9-113.6,5.4-18.7,15.8-31.3,32.7-39.5l9.1-4.5.1-8.7c.1-4.8.1-9.4.1-10.2.1-1.3,13.9-1.5,118.6-1.5S552,369.7,552.1,371Z" transform="translate(-0.18 -0.11)" />
	<path d="M379,470.7c-14.6,3.7-28.2,14.8-33.7,27.3-.5,1.4-1.5,3.6-2.1,5-3.4,8-3.6,22.7-.3,33,4.3,13.8,6.8,16.8,51.1,61.3L435.5,639l38.3-38.2c39-39,45.2-45.9,50.3-56,6.5-12.8,7.5-30.5,2.6-42.6-12.1-29.4-45.5-41-73.7-25.5-6.8,3.7-13.9,8.9-15.3,11-1.2,1.9-3.1,1.6-5.3-.8-5.2-5.7-21.1-14.4-30.1-16.5C396.8,469.2,384.3,469.3,379,470.7Z" transform="translate(-0.18 -0.11)" />
</svg>
