<?xml version="1.0" standalone="no"?>
<!DOCTYPE svg PUBLIC "-//W3C//DTD SVG 20010904//EN"
 "http://www.w3.org/TR/2001/REC-SVG-20010904/DTD/svg10.dtd">
<svg version="1.0" xmlns="http://www.w3.org/2000/svg"
 width="1000.000000pt" height="1000.000000pt" viewBox="0 0 1000.000000 1000.000000"
 preserveAspectRatio="xMidYMid meet">
<metadata>
Created by potrace 1.11, written by Peter Selinger 2001-2013
</metadata>
<g transform="translate(0.000000,1000.000000) scale(0.100000,-0.100000)"
fill="#000000" stroke="none">
<path d="M4860 9298 c-41 -4 -86 -10 -100 -13 -65 -13 -235 -45 -258 -49 -15
-2 -28 -5 -29 -6 -2 -2 -6 -3 -10 -4 -5 -2 -28 -8 -53 -16 -25 -7 -54 -15 -65
-17 -20 -4 -135 -39 -315 -95 -52 -17 -108 -38 -125 -46 -16 -9 -34 -15 -38
-14 -4 1 -15 -4 -23 -13 -9 -8 -23 -15 -32 -15 -10 0 -29 -8 -42 -17 -14 -10
-26 -17 -27 -15 -5 4 -113 -50 -119 -59 -3 -5 -9 -7 -13 -5 -4 3 -20 -6 -36
-20 -15 -13 -32 -24 -37 -24 -6 0 -35 -18 -67 -40 -31 -22 -61 -40 -67 -40 -5
0 -26 36 -47 80 -20 44 -42 80 -48 80 -5 0 -8 4 -5 9 6 9 -69 80 -86 82 -4 1
-12 2 -17 3 -5 0 -12 4 -16 7 -19 19 -136 -76 -127 -103 1 -5 -2 -8 -7 -8 -10
0 -27 -39 -23 -52 1 -5 -2 -8 -8 -8 -5 0 -10 -8 -10 -18 0 -20 -29 -52 -47
-52 -24 0 -74 -58 -87 -100 -12 -39 -12 -59 -2 -105 4 -21 41 -72 75 -103 l36
-32 -21 -36 c-11 -20 -24 -37 -29 -38 -4 0 -52 -45 -107 -99 -54 -54 -98 -95
-98 -91 0 4 -13 -9 -30 -27 -16 -19 -30 -42 -30 -52 0 -16 6 -18 43 -14 23 3
52 8 65 11 12 3 30 8 40 10 9 2 35 12 56 21 22 9 47 18 55 20 9 2 53 17 99 34
46 17 85 31 88 31 18 0 -10 -71 -98 -248 -56 -113 -101 -212 -101 -219 0 -7
-4 -13 -9 -13 -4 0 -7 -3 -6 -7 1 -5 -6 -26 -16 -48 -10 -22 -19 -47 -21 -55
-3 -13 -27 -79 -50 -135 -4 -11 -7 -23 -7 -27 1 -5 -3 -8 -9 -8 -5 0 -8 -4 -5
-8 3 -5 -8 -51 -25 -103 -16 -52 -30 -104 -31 -116 -1 -13 -5 -23 -9 -23 -9 0
-12 -70 -8 -181 1 -14 -6 -57 -16 -95 -10 -38 -19 -76 -20 -84 -2 -8 -4 -15
-5 -15 -1 0 -3 -7 -5 -15 -2 -8 -9 -33 -15 -55 -16 -61 -17 -66 -24 -119 -4
-27 -9 -53 -11 -56 -2 -4 -7 -20 -9 -36 -3 -16 -8 -40 -11 -54 -3 -14 -7 -56
-10 -95 -7 -86 -14 -145 -20 -165 -2 -8 -7 -40 -11 -70 -3 -30 -8 -66 -10 -80
-4 -25 -11 -121 -19 -235 -2 -33 -6 -70 -9 -81 -9 -43 -16 -97 -22 -172 -3
-42 -10 -82 -16 -89 -6 -7 -8 -13 -5 -13 3 0 1 -19 -6 -42 -15 -53 -8 -361 9
-378 6 -6 20 -12 32 -15 28 -5 61 40 66 92 3 21 5 38 6 38 1 0 4 16 6 35 6 52
9 64 17 78 5 6 6 12 3 12 -2 0 4 29 14 64 10 36 16 66 14 69 -5 4 12 100 31
180 3 12 8 35 10 51 7 45 52 198 74 249 17 39 26 48 59 56 58 16 86 46 143
156 28 55 55 102 58 105 4 3 13 20 20 38 8 17 19 32 25 32 7 0 31 -17 54 -37
24 -21 54 -47 68 -58 14 -11 33 -27 42 -35 31 -29 91 -70 101 -70 6 0 11 -4
11 -10 0 -5 5 -10 11 -10 7 0 19 -8 28 -19 33 -38 241 -138 356 -171 23 -6 34
-10 115 -36 47 -15 90 -29 95 -30 72 -14 90 -62 33 -85 -18 -7 -93 -41 -166
-76 -123 -59 -133 -66 -140 -96 -3 -17 -5 -41 -4 -52 9 -55 2 -141 -12 -163
-7 -11 -31 -126 -40 -187 -4 -23 -9 -52 -12 -65 -14 -70 -30 -168 -39 -245 -2
-22 -7 -53 -9 -70 -6 -31 -13 -104 -21 -190 -2 -27 -6 -68 -9 -90 -3 -22 -8
-73 -11 -114 -3 -41 -8 -78 -10 -81 -3 -4 -7 -38 -10 -76 -6 -74 -11 -126 -19
-189 -4 -37 -9 -101 -21 -268 -3 -38 -8 -73 -11 -79 -7 -11 -12 -135 -19 -483
-5 -203 -12 -464 -16 -587 l-2 -67 -55 -51 c-29 -27 -59 -50 -65 -50 -6 0 -8
-2 -5 -6 3 -3 -69 -81 -161 -173 -91 -93 -184 -190 -206 -216 -22 -26 -55 -62
-72 -81 -18 -18 -33 -38 -33 -44 0 -6 -4 -8 -10 -5 -5 3 -10 0 -10 -9 0 -8 -5
-16 -11 -18 -16 -5 -14 -59 2 -69 8 -5 10 -9 5 -9 -6 0 11 -20 36 -45 26 -25
45 -45 42 -45 -2 0 11 -15 29 -34 47 -50 68 -76 59 -76 -4 0 -1 -4 7 -9 11 -7
14 -30 13 -90 -1 -60 2 -84 14 -95 8 -9 12 -16 7 -16 -16 0 36 -28 132 -71 55
-24 103 -48 107 -54 5 -7 8 -7 8 0 0 6 7 1 15 -9 11 -15 15 -48 15 -127 0 -59
5 -120 12 -136 6 -15 12 -31 12 -35 1 -4 9 -17 18 -28 10 -11 18 -24 18 -29 0
-13 130 -146 140 -143 6 1 10 -2 10 -7 0 -8 12 -13 70 -28 17 -5 55 -12 85
-16 12 -2 25 -6 30 -9 12 -6 91 -4 200 6 150 13 211 24 260 45 43 18 120 28
113 14 -3 -4 10 -22 29 -40 18 -18 33 -30 33 -27 0 2 14 -11 31 -31 17 -19 37
-35 45 -35 8 0 14 -4 14 -8 0 -8 67 -44 74 -39 1 1 9 -3 17 -9 36 -30 295 -50
385 -30 16 4 38 8 49 10 34 7 108 36 122 47 7 6 13 9 13 5 0 -3 37 13 83 36
45 23 85 41 90 40 4 -1 7 2 7 8 0 5 4 10 10 10 5 0 33 14 62 32 29 17 62 36
73 42 56 30 245 173 245 185 0 8 3 12 6 8 3 -3 26 14 51 39 25 24 52 44 60 44
21 0 193 81 193 91 0 5 5 9 10 9 6 0 32 15 59 34 27 19 52 32 55 29 3 -4 6 -1
6 6 0 7 4 10 9 7 5 -3 15 1 22 10 13 16 77 52 93 52 5 0 12 5 15 10 3 5 35 25
71 44 113 61 144 79 168 101 12 11 22 18 22 14 0 -4 24 11 53 33 28 22 56 40
60 40 5 0 14 6 21 13 7 6 32 27 54 46 23 19 39 39 35 44 -3 6 -2 7 4 4 10 -6
44 33 56 65 3 9 -2 27 -12 40 -27 35 -61 105 -54 112 4 3 1 6 -5 6 -7 0 -20
17 -30 38 -9 20 -23 41 -30 45 -7 5 -10 12 -7 18 4 5 1 9 -4 9 -6 0 -11 7 -11
15 0 8 -5 15 -11 15 -5 0 -8 4 -5 9 3 5 -1 14 -9 21 -8 7 -15 19 -15 26 0 8
-4 14 -8 14 -8 0 -35 46 -36 62 -1 3 -11 18 -23 32 -13 14 -20 26 -16 26 4 0
2 5 -5 12 -7 7 -12 24 -12 39 0 21 10 34 43 57 23 15 57 35 75 43 18 7 32 17
32 21 0 5 9 8 20 8 11 0 20 5 20 10 0 6 3 9 8 8 8 -3 7 -3 167 94 75 46 191
150 201 180 3 10 -2 41 -11 68 -18 53 -16 110 4 148 6 12 9 22 6 22 -3 0 3 10
14 22 11 11 18 25 15 30 -3 4 -1 8 4 8 8 0 9 24 4 67 -3 16 -54 63 -63 57 -4
-2 -10 0 -14 6 -4 6 -11 8 -16 5 -5 -4 -9 -1 -9 5 0 6 -4 9 -9 6 -4 -3 -29 8
-55 24 -26 17 -49 30 -53 30 -10 0 -123 124 -129 142 -3 10 -10 18 -15 18 -6
0 -7 5 -4 10 3 6 2 10 -3 10 -8 0 -36 50 -32 59 1 2 -3 7 -8 10 -14 9 -171
319 -164 326 3 3 0 5 -6 5 -7 0 -12 4 -12 9 0 5 -5 22 -12 38 -6 15 -11 31
-10 36 1 4 -3 7 -8 7 -5 0 -9 3 -8 8 1 4 -6 25 -16 47 -10 22 -19 45 -20 50
-1 6 -4 15 -7 20 -4 6 -10 24 -14 40 -12 44 -12 45 -15 50 -1 3 -3 8 -5 13 -1
4 -5 14 -8 22 -4 8 -20 56 -37 105 -28 84 -38 121 -45 170 -2 11 -4 20 -5 20
-1 0 -3 7 -5 15 -2 8 -9 33 -15 55 -18 67 -21 79 -26 102 -2 12 -9 34 -14 48
-5 14 -7 25 -5 25 2 0 0 12 -5 26 -11 27 -22 106 -24 166 0 21 -3 38 -6 38 -3
0 -5 12 -6 28 -1 15 -4 46 -8 70 -21 138 -22 150 -31 282 -3 47 -7 122 -10
167 -6 90 -1 109 46 156 l27 29 -19 41 c-10 23 -19 50 -19 60 0 9 24 41 53 70
28 29 68 83 87 120 19 37 37 67 41 67 4 0 9 9 12 20 8 31 10 34 24 48 7 7 13
22 13 32 0 10 5 22 10 25 6 4 17 22 25 41 14 33 16 34 72 35 32 0 67 2 78 5
21 5 52 10 100 18 17 3 41 8 55 11 62 13 100 17 101 9 0 -5 2 -18 5 -29 12
-54 22 -150 29 -282 3 -56 8 -112 11 -125 2 -13 6 -36 9 -53 3 -16 8 -41 10
-55 13 -64 15 -78 19 -115 11 -96 17 -143 21 -163 3 -12 7 -32 10 -44 3 -13 7
-36 10 -53 2 -16 13 -64 24 -105 20 -75 30 -134 35 -214 6 -76 42 -144 65
-121 3 3 6 47 7 98 1 51 4 126 8 167 4 41 9 118 11 170 5 101 12 179 20 220 2
14 7 52 11 85 3 33 8 63 11 68 2 4 6 46 9 95 8 144 17 255 30 362 11 92 13
118 18 230 6 144 16 293 31 465 8 104 22 504 27 815 1 52 -8 158 -17 211 -7
41 5 48 90 50 98 3 135 14 184 55 85 73 105 206 42 274 -11 11 -34 15 -100 13
-47 -1 -95 -3 -106 -5 -24 -4 -27 27 -9 80 19 57 5 125 -33 159 -58 51 -109
57 -207 24 -94 -32 -143 -112 -147 -241 -1 -30 -4 -59 -7 -63 -3 -7 -112 178
-112 191 0 7 -114 167 -125 174 -5 4 -7 8 -2 8 7 0 1 8 -55 68 -15 16 -24 32
-21 36 4 3 1 6 -4 6 -6 0 -42 30 -80 68 -68 67 -181 152 -202 152 -6 0 -11 5
-11 11 0 5 -4 8 -9 5 -5 -3 -14 0 -20 8 -7 8 -23 17 -36 20 -14 4 -25 11 -25
17 0 6 -5 7 -10 4 -6 -3 -13 1 -16 9 -3 9 -14 16 -23 16 -9 0 -27 9 -41 20
-14 11 -28 20 -32 20 -4 0 -19 5 -35 12 -15 6 -30 12 -33 13 -7 2 -61 24 -80
32 -8 3 -17 7 -20 8 -3 1 -14 5 -25 9 -70 27 -257 81 -310 91 -16 2 -41 7 -55
10 -14 3 -52 8 -85 11 -33 3 -63 8 -66 10 -4 2 -27 6 -50 9 -123 14 -147 17
-184 27 -49 13 -194 16 -295 6z"/>
</g>
</svg>
